<svg width="44" height="42" viewBox="0 0 44 42" fill="none" xmlns="http://www.w3.org/2000/svg">
<path d="M24.2827 6.04899C24.0878 5.96188 23.8667 5.91602 23.6416 5.91602V42.0005C23.8667 42.0005 24.0878 41.9547 24.2827 41.8675L43.3587 33.3451C43.5537 33.2579 43.7157 33.1325 43.8282 32.9815C43.9408 32.8305 44 32.6592 43.9998 32.4849V15.435C44 15.2606 43.9408 15.0893 43.8282 14.9383C43.7157 14.7873 43.5537 14.6619 43.3587 14.5748L24.2827 6.04899Z" fill="#333333"/>
<path d="M19.7171 0.132973C19.912 0.0458608 20.1331 0 20.3582 0V36.0845C20.1331 36.0845 19.912 36.0386 19.7171 35.9515L0.64114 27.4291C0.446089 27.3419 0.284142 27.2165 0.171593 27.0655C0.059042 26.9145 -0.000137329 26.7432 5.72205e-06 26.5689V9.51895C-0.000137329 9.34462 0.059042 9.17333 0.171593 9.02232C0.284142 8.87132 0.446089 8.74593 0.64114 8.65876L19.7171 0.132973Z" fill="#333333"/>
</svg>