

<svg width="44" height="42" viewBox="0 0 44 42" fill="none" xmlns="http://www.w3.org/2000/svg">
<path d="M24.2829 6.04847C24.088 5.96136 23.8669 5.9155 23.6418 5.9155V42C23.8669 42 24.088 41.9541 24.2829 41.867L43.3589 33.3446C43.5539 33.2574 43.7159 33.132 43.8284 32.981C43.941 32.83 44.0001 32.6587 44 32.4844V15.4344C44.0001 15.2601 43.941 15.0888 43.8284 14.9378C43.7159 14.7868 43.5539 14.6614 43.3589 14.5743L24.2829 6.04847Z" fill="#E8F1F5"/>
<path d="M19.7171 0.132973C19.912 0.0458608 20.1331 0 20.3582 0V36.0845C20.1331 36.0845 19.912 36.0386 19.7171 35.9515L0.64114 27.4291C0.446089 27.3419 0.284142 27.2165 0.171593 27.0655C0.059042 26.9145 -0.000137329 26.7432 5.72205e-06 26.5689V9.51895C-0.000137329 9.34462 0.059042 9.17333 0.171593 9.02232C0.284142 8.87132 0.446089 8.74593 0.64114 8.65876L19.7171 0.132973Z" fill="#E8F1F5"/>
</svg>
